<svg xmlns="http://www.w3.org/2000/svg" viewBox="0 0 672 267.85"><defs><style>.cls-1{fill:#149ad6;}.cls-2{fill:#273c7f;}.cls-3{fill:#252f64;}.cls-4,.cls-5{font-size:128.93px;font-family:BillionDreams, Billion Dreams;}.cls-4{fill:#fac718;}.cls-5{fill:#dd3936;}</style></defs><g id="Capa_22" data-name="Capa 22"><path class="cls-1" d="M834.24,291.61H798c-2.13,0-4.27,2.13-5.33,4.26L777.7,389.74q0,3.19,3.2,3.2h19.2c2.14,0,3.2-1.07,3.2-3.2l4.27-26.67c0-2.13,2.13-4.26,5.33-4.26h11.74q36.79,0,41.6-35.2c2.13-9.6,0-18.14-4.27-23.47-6.4-5.33-16-8.53-27.73-8.53m4.26,35.2c-2.13,12.8-11.73,12.8-21.33,12.8h-6.4L815,315.07c0-1.06,1.06-2.13,3.2-2.13h2.13c6.4,0,12.8,0,16,4.27,2.13,1.06,2.13,4.26,2.13,9.6" transform="translate(-314.77 -246.81)"/><path class="cls-2" d="M572.9,291.61H536.64c-2.14,0-4.27,2.13-5.34,4.26l-14.93,93.87q0,3.19,3.2,3.2h17.07c2.13,0,4.26-2.13,5.33-4.27l4.27-25.6c0-2.13,2.13-4.26,5.33-4.26H563.3q36.81,0,41.6-35.2c2.14-9.6,0-18.14-4.26-23.47-6.4-5.33-14.94-8.53-27.74-8.53m4.27,35.2c-2.13,12.8-11.73,12.8-21.33,12.8H550.5l4.27-24.54c0-1.06,1.07-2.13,3.2-2.13h2.13c6.4,0,12.8,0,16,4.27,1.07,1.06,2.14,4.26,1.07,9.6" transform="translate(-314.77 -246.81)"/><path class="cls-2" d="M682.77,325.74H665.7c-1.06,0-3.2,1.07-3.2,2.13l-1.06,5.34-1.07-2.14c-4.27-5.33-11.73-7.46-20.27-7.46-19.2,0-36.26,14.93-39.46,35.2a31.74,31.74,0,0,0,6.4,26.66c5.33,6.4,12.8,8.54,22.4,8.54,16,0,24.53-9.6,24.53-9.6l-1.07,5.33q0,3.19,3.2,3.2h16c2.14,0,4.27-2.13,5.34-4.27l9.6-59.73c-1.07-1.07-3.2-3.2-4.27-3.2m-24.53,34.13c-2.14,9.6-9.6,17.07-20.27,17.07-5.33,0-9.6-2.13-11.73-4.27q-3.21-4.8-3.2-12.8a19.52,19.52,0,0,1,19.2-17.06c5.33,0,8.53,2.13,11.73,4.26,3.2,3.2,4.27,8.54,4.27,12.8" transform="translate(-314.77 -246.81)"/><path class="cls-1" d="M943,325.74H926c-1.07,0-3.2,1.07-3.2,2.13l-1.07,5.34-1.06-2.14c-4.27-5.33-11.74-7.46-20.27-7.46-19.2,0-36.27,14.93-39.47,35.2a31.81,31.81,0,0,0,6.4,26.66c5.34,6.4,12.8,8.54,22.4,8.54,16,0,24.54-9.6,24.54-9.6l-1.07,5.33q0,3.19,3.2,3.2h16c2.13,0,4.27-2.13,5.33-4.27l9.6-59.73c-1.06-1.07-2.13-3.2-4.26-3.2M918.5,359.87c-2.13,9.6-9.6,17.07-20.26,17.07-5.34,0-9.6-2.13-11.74-4.27q-3.19-4.8-3.2-12.8a19.53,19.53,0,0,1,19.2-17.06c5.34,0,8.54,2.13,11.74,4.26a12.25,12.25,0,0,1,4.26,12.8" transform="translate(-314.77 -246.81)"/><path class="cls-2" d="M775.57,325.74H757.44c-2.14,0-3.2,1.07-4.27,2.13L729.7,364.14,719,330c-1.07-2.14-2.14-3.2-5.34-3.2H696.64c-2.14,0-3.2,2.13-3.2,4.26l19.2,56.54-18.14,25.6c-1.06,2.13,0,5.33,2.14,5.33H713.7c2.14,0,3.2-1.07,4.27-2.13l58.67-84.27c3.2-3.2,1.06-6.4-1.07-6.4" transform="translate(-314.77 -246.81)"/><path class="cls-1" d="M963.3,294.81l-14.93,96q0,3.19,3.2,3.2H966.5c2.14,0,4.27-2.14,5.34-4.27l14.93-93.87q0-3.19-3.2-3.2H966.5c-1.06-1.06-2.13,0-3.2,2.14" transform="translate(-314.77 -246.81)"/><path class="cls-2" d="M437.44,259.61c-7.47-8.54-21.34-12.8-40.54-12.8H343.57c-3.2,0-6.4,3.2-7.47,6.4L314.77,392.94c0,3.2,2.13,5.33,4.27,5.33H352.1L360.64,346v2.13c1.06-3.2,4.26-6.4,7.46-6.4h16c30.94,0,54.4-12.8,61.87-48v-3.2h0c1.07-13.87-1.07-22.4-8.53-30.93" transform="translate(-314.77 -246.81)"/><path class="cls-1" d="M444.9,290.54h0v3.2c-7.46,36.27-30.93,48-61.86,48H367c-3.2,0-6.4,3.2-7.47,6.4L348.9,413.21c0,2.13,1.07,4.26,4.27,4.26H380.9c3.2,0,6.4-2.13,6.4-5.33v-1.07L392.64,378v-2.14c0-3.2,3.2-5.33,6.4-5.33h4.26c26.67,0,48-10.67,53.34-42.67,2.13-12.8,1.06-24.53-5.34-32a10.92,10.92,0,0,0-6.4-5.33" transform="translate(-314.77 -246.81)"/><path class="cls-3" d="M437.44,287.34c-1.07,0-2.14-1.07-3.2-1.07a3.92,3.92,0,0,1-3.2-1.06c-4.27-1.07-8.54-1.07-13.87-1.07h-41.6a3.91,3.91,0,0,0-3.2,1.07,5.86,5.86,0,0,0-3.2,5.33L360.64,346v2.13c1.06-3.2,4.26-6.4,7.46-6.4h16c30.94,0,54.4-12.8,61.87-48a3.91,3.91,0,0,1,1.07-3.2c-2.14-1.07-3.2-2.13-5.34-2.13-3.2-1.07-3.2-1.07-4.26-1.07" transform="translate(-314.77 -246.81)"/></g><g id="Capa_23" data-name="Capa 23"><text class="cls-4" transform="translate(208.99 218) rotate(-4.68)">Supremo</text><text class="cls-5" transform="translate(215.22 213.65) rotate(-4.68)">Supremo</text></g></svg>