<svg xmlns="http://www.w3.org/2000/svg" viewBox="0 0 591.9 287.61"><defs><style>.cls-1,.cls-5{fill:#dd3936;}.cls-2,.cls-3,.cls-4{fill:#fac718;}.cls-3{font-size:62.67px;font-family:KrinkesDecorPERSONALUSE, Krinkes Decor PERSONAL USE;}.cls-4,.cls-5{font-size:150.16px;font-family:BillionDreams, Billion Dreams;}</style></defs><g id="Capa_4" data-name="Capa 4"><path class="cls-1" d="M552.58,267.32c-5.76-13.25-17.67-14.52-18.44-14.67-.13,0,2.25,2,.2,12.56-1.05,5.38-4.59,9.87-8.9,10.17-10.28.71-8.12-13.6-6.13-20.76,3.47-12.52,7.9-24.29,7.17-36.73-.93-15.92-10.06-30-25-32.06-2.38-.33-4.06,2.65-2.45,4.33a11.44,11.44,0,0,1,2.94,5.32,23.1,23.1,0,0,1,.24,7.54c-.53,4.93-2.94,9.77-6.21,13.95-5.21,6.66-11.76,9.3-18.64,11.06l-.21.05c-2.76.52-5.53.86-8.2,1.24-14.28,2-30,7-36.33,22.58-2.47,6-1.35,12.7.1,18.27,2.1,8,7.24,15.15,6.28,24.38-1.24,11.9-14.83,17-22.6,11.42-5.26-3.77-6.82-10.41-6.14-17.43a38,38,0,0,1,5.05-14c.54-.91-4.08,1.18-5,1.76-12.95,6.83-24.94,19-28.35,33.1-2.16,9-.36,17.66.28,26.13.37,4.83,2.13,10.35-1.63,14.86-5.63,6.75-11,2.81-12.94-2.33a2.36,2.36,0,0,0-3.73-.77c-15.26,11.83-7.36,36.25-7.37,36.17-.87-5.66-.25-20.35,5.71-28.7a2.48,2.48,0,0,1,3.95-.34,9.73,9.73,0,0,0,11.32,3.1c7.27-2.59,10.34-9.79,9.4-19.64-.72-7.65-2.47-15.77-1.12-23.57a40,40,0,0,1,13.72-22.67,2.29,2.29,0,0,1,3.88,1.82c-.89,12.34,6.05,17.6,10.8,19.15a23.16,23.16,0,0,0,20.32-3.42,24.44,24.44,0,0,0,6.55-6.51c5.17-8.14,2.72-16.78-.11-23.64-3.51-8.49-6.11-18.51-1.41-27.66,4.35-8.46,16-13.23,25.38-14.24,14-1.51,25.52-5.42,31.73-11.08,7.39-6.73,9.89-14.8,11.43-24,.07-.41.13-.82.19-1.25.31-2.23,3.09-3.28,4.43-1.66.12.14.24.29.35.44a33.87,33.87,0,0,1,6.69,15.58,71.25,71.25,0,0,1-1.75,26.44c-1.86,6.6-3.7,12.77-5.36,19.37-1.86,7.36-2.33,17.51,4.38,20.94,5.63,2.88,13.21.17,17.44-5.68a31,31,0,0,0,5-10.17,2.66,2.66,0,0,1,4.11-1.56,20.51,20.51,0,0,1,4.61,5.56c1.45,2.54,5.58.16,4.43-2.56Z" transform="translate(-316.56 -185.81)"/><path class="cls-1" d="M466.5,350.44c-11.91,1.85-21.51,7.62-21.45,12.89s9.75,8,21.65,6.17,21.5-7.62,21.45-12.88S478.4,348.59,466.5,350.44Zm46.67.47c-8.67,1.35-15.67,5.55-15.63,9.39s7.11,5.85,15.78,4.5,15.66-5.55,15.62-9.39S521.84,349.56,513.17,350.91Zm-69.4,25.93c-5.48.85-9.89,3.5-9.87,5.92s4.49,3.69,10,2.84,9.89-3.5,9.86-5.92S449.24,376,443.77,376.84Zm63-36.81c0-1.94-3.61-3-8-2.28s-7.95,2.82-7.92,4.77,3.6,3,8,2.28S506.77,342,506.75,340Zm-82.3,26c-5.47.85-9.88,3.5-9.86,5.92s4.48,3.69,10,2.84,9.89-3.51,9.86-5.93S429.93,365.19,424.45,366.05Zm45.69-23.39c5.47-.85,9.89-3.51,9.86-5.93s-4.48-3.69-9.95-2.84-9.89,3.51-9.87,5.93S464.67,343.51,470.14,342.66ZM401.32,385c-7.15,1.12-12.91,4.58-12.88,7.74s5.86,4.82,13,3.71,12.91-4.58,12.88-7.74S408.47,383.88,401.32,385Z" transform="translate(-316.56 -185.81)"/><path class="cls-2" d="M581.68,340.65c-.15-.27-.33-.53-.5-.79-3.06-9.2-11.69-16-19.16-21-12.09-8.08-25.79-14-39.95-18.4-12.34-3.81-26.88-8.15-40.7-3.4a34.68,34.68,0,0,0-18.44,17.15c-.73,1.58-.91,3.35-1.61,4.88a16.52,16.52,0,0,1-3.15,4.24c-.05,0-.09.11-.14.17-4.24,3.92-7,9.21-11.28,13.55-7.38,7.58-17.17,11.95-25.93,17.29s-14,11.37-20.87,18.77a40.3,40.3,0,0,1-10.21,7.5c-6.75,2.74-12.75,6.16-18.18,12.13-3,3.27-6,7.08-9,10.15-1.24,1.29-5.83,6.94-.64,3.31a61.35,61.35,0,0,0,10.85-9.28A73.86,73.86,0,0,1,388.42,384c4-1.63,8-3.41,11.47-6.55s6-7,9.17-10.35a63,63,0,0,1,12.55-9.74c7.54-4.68,15.59-8.48,22.63-14.08a49.63,49.63,0,0,0,7.23-7c3.33-3.67,6.62-7.38,11.11-9.54,7.41-3.56,15.35-1.82,22.74-1.28,3,.22,5.94.49,8.79.9A119,119,0,0,1,520.06,336a73.54,73.54,0,0,1,15.46,10.17,29.48,29.48,0,0,1,6.17,7.27c.59,1,5.92,10.64-2.53,12.29a27.27,27.27,0,0,0-2.85,1c-1.37.25-2.71.51-4,.72-4.35.75-8.74,1.9-13.06,3.09s-8.51,2.49-12.74,3.89c-6.83,1.28-13.73,1.61-20.66,2.89-7.71,1.42-13.72,6.71-20.38,10.57q-4.58,1.33-9.16,2.58c-4.36,1.19-8.73,2.13-13.1,3-2.69.12-5.37.15-7.88.21-4.75.12-9.18-.17-13.9,1.66a66.63,66.63,0,0,0-8.42,4.28l-1.62.62-.47.13c-2.06.63-4.1,1.28-6.14,1.94-6.09,1.58-12.1,2.36-18.53,3.39-5.32.85-10,3.84-14.8,6h0c-11.05,2.25-25.59,5.48-34,10.86-4.51,2.88-10.5,9.07-13.85,13.23-5.21,6.46-8.67,13.5-6.36,21a1.24,1.24,0,0,0,2.28-.06,50.67,50.67,0,0,1,4.41-8.42c15.59-21,44.89-22.46,67.37-26.84A107.74,107.74,0,0,0,409,416.59c6.8-2.57,13.33-5.81,20.44-6.58,2.76-.29,5.44-.38,8.06-.54,6.48.24,13-1.52,19.85-4.19,5.86-2.3,11.64-5,17.67-6.58,5.66-1.45,11.37-1.56,17-1.81,12-.54,22.64-4.26,34.49-7.59a55.36,55.36,0,0,1,8.61-1.55l.38,0c1.63-.15,3.28-.36,4.92-.61a53.14,53.14,0,0,0,5.47-1c2.71-.57,5.42-1.24,8.11-2,9.31-2.75,19.1-7.08,24.66-16.1C583.51,360.12,585.73,348,581.68,340.65Zm-4.75,17.83c-2.34,9.33-9.14,14.83-17.68,18.52a83.75,83.75,0,0,1-20.91,5.85c-4.74,0-8.09,1.35-13,2.24-10.69,2-16.94,4.47-27.71,6.35-9.86,1.73-25,3.57-34.63,7.37-6.08,2.41-12.26,5.16-18.49,7-7.76.79-15.57,1.44-23.26,3.64-7.19,2.06-14.09,4-21.33,6-7.8,2.13-15.7,3.27-23.56,4.54-18.31,3-41.71,8.29-52.92,25.36a42.38,42.38,0,0,0-4.38,6.74c-.22-6.36,4-12.42,8.66-17.78a70.73,70.73,0,0,1,14.91-11.2c11.92-5.2,28.15-7.23,35.56-11.47,4.71-2.69,7-3.21,17.91-4.31,3.36-.34,6.87-1.71,10.15-2.89a16.55,16.55,0,0,1,2.3-.73c9.69-1.61,11.78-5.3,17.94-6.47,4.39-.82,9.31.42,13.71-.29,5.38-.88,10.77-1.75,16.17-2.85,14.09-2.86,17.4-8.3,26-11.45,4.34-1.57,8.67-.39,13.06-1.67,7.91-2.31,18.34-6.28,26.31-7.94,4.35-.91,6.25,0,10.62-.46,30.61-3.36,12.77-21.93,7.41-27.7-5.2-5.61-12.21-10.07-19.05-13.56a76.89,76.89,0,0,0-17.8-6.42,122.74,122.74,0,0,0-15.71-3.18,65.86,65.86,0,0,0-9-1,49.92,49.92,0,0,0-11.13,0c-1-.66-.87-2.14.36-3.12a15.2,15.2,0,0,1,3.35-1.73,19.3,19.3,0,0,1,1.95-.73c5.6-1.48,12.08-1.07,16.58-.64.16,0,.21-.22.06-.25-3.79-.86-12.92-3.43-19.68-2.32-.73-.31-1.08-.9-.15-2,.18-.2.37-.38.56-.57a23,23,0,0,1,14.24-1.93c.12,0,.18-.16.08-.2-3.23-1.37-6.2-3.11-9.91-3,0,0,0,0,.07-.05,6.55-4.86,14.66-5.95,21.87-5.33,11.53,1,22.78,4.88,33.2,8.89a167.29,167.29,0,0,1,29.41,14.55,44,44,0,0,1,12.6,11.82,12.73,12.73,0,0,0-2.14,0,17.11,17.11,0,0,0-2.91.3,12.3,12.3,0,0,0-2.86.58,5.84,5.84,0,0,0-1.36-1c-1.48-.84-3.1-1.43-4.61-2.22-3.9-2-7.8-4.1-11.63-6.26,0,0-.08.05,0,.08,3.28,3,6.53,6,9.68,9.08a4.33,4.33,0,0,1,.58,2.9,2.38,2.38,0,0,1-.94.85c-1.24.67-2.67.17-3.72-.26l-.77-.33c-8.73-9.09-19.82-14.21-32.92-15.86-.06,0-.11.11,0,.13A75.29,75.29,0,0,1,541.25,334c.6.54,1.22,1.07,1.79,1.65,3.51,3.56,5.59,8.08,9.11,11.64,1.07,1.08,2.86.2,3.64-1,4.17-6.56,9.75-8,15.1-6.84a11,11,0,0,1,6.09,6.89A27.37,27.37,0,0,1,576.93,358.48Zm-18.15-20.9-.09.07s0-.09,0-.13Z" transform="translate(-316.56 -185.81)"/><path class="cls-2" d="M500.8,215.12c4.84-7.78,11.53-25.58-1.09-29.17a.81.81,0,0,0-.6,1.49c8.38,5.32,5.17,20.61,1.51,27.58a.1.1,0,0,0,.18.1Z" transform="translate(-316.56 -185.81)"/><path class="cls-2" d="M447.83,238.21c-13.52,7-18.58,19.62-13.11,33.75a.25.25,0,0,0,.48-.14c-2.68-12.15,2.47-26.37,12.74-33.44a.1.1,0,0,0-.11-.17Z" transform="translate(-316.56 -185.81)"/><path class="cls-2" d="M529.75,276.62c7.21-4.56,14.06-16.07,6.78-23.44a.47.47,0,0,0-.8.34c0,4.1,1.09,8.39.36,12.43a18,18,0,0,1-6.39,10.61s0,.09,0,.06Z" transform="translate(-316.56 -185.81)"/><path class="cls-2" d="M387.34,300.59a92.82,92.82,0,0,1,11.47-11.65c2.3-2,4.8-3.6,7.2-5.42,2.06-1.56,3.11-3.59,5.05-5.29.14-.12,0-.28-.18-.22-2.89,1.29-5,1.37-7.49,3.44a75.12,75.12,0,0,0-6.16,5.94,79.74,79.74,0,0,0-10,13.1c0,.08.07.17.13.1Z" transform="translate(-316.56 -185.81)"/><path class="cls-2" d="M462.92,365.7a32.18,32.18,0,0,0,18.8-5.15c3-2.05,3.93-6.94-.82-7.13-.65,0-.73.8-.29,1.12,2.86,2-5.64,6.53-6.92,7.21a37.77,37.77,0,0,1-10.79,3.83c-.07,0,0,.12,0,.12Z" transform="translate(-316.56 -185.81)"/><path class="cls-2" d="M508.83,362c5.8.57,12.24-1.08,15.93-5.86,1-1.31-.69-3.13-1.89-1.86-3.92,4.15-8.16,7.23-14,7.51a.11.11,0,0,0,0,.21Z" transform="translate(-316.56 -185.81)"/><path class="cls-2" d="M398.19,393c4.18.95,9.18.13,12.05-3.32a1.29,1.29,0,0,0-1.84-1.8c-3.12,2.61-6,4.69-10.21,5.08,0,0,0,0,0,0Z" transform="translate(-316.56 -185.81)"/><path class="cls-2" d="M506.67,188.54a10.7,10.7,0,0,0-7.55-2.64c-.66,0-1.27.84-.81,1.45.9,1.19,2.29,1.48,3.39,2.44a7.38,7.38,0,0,1,2.15,4.29c.23.94,1.58.65,1.62-.24a6.84,6.84,0,0,0-1.62-4.39,7.65,7.65,0,0,0-1.56-1.5c-.74-.53-1.81-.83-2.34-1.59l-.81,1.46a29.73,29.73,0,0,1,7.39,1c.13,0,.25-.15.14-.24Z" transform="translate(-316.56 -185.81)"/><path class="cls-2" d="M493.06,224.56c-2.62,2.27-6.19,3.49-9.39,4.74a.35.35,0,0,0,.1.69c4.11.06,6.93-2.22,9.38-5.34a.06.06,0,0,0-.09-.09Z" transform="translate(-316.56 -185.81)"/><path class="cls-2" d="M461.63,234.37a28.44,28.44,0,0,0-27,19c-.27.77,1,1.3,1.33.54a32.11,32.11,0,0,1,25.7-19.5c.05,0,.06-.09,0-.09Z" transform="translate(-316.56 -185.81)"/><path class="cls-2" d="M474.68,231.78c1.46.27,3.12.37,4.31-.69a.46.46,0,0,0-.33-.78c-1.42.06-2.7.9-4,1.43,0,0,0,0,0,0Z" transform="translate(-316.56 -185.81)"/><path class="cls-2" d="M407.13,287.84a14.59,14.59,0,0,1,4.47-9.15c.44-.45,0-1.34-.65-1.1-3.93,1.46-7.37,3.24-9.71,6.87-.48.75.61,1.52,1.21.92,2.55-2.53,5.43-5.25,8.86-6.52-.22-.36-.44-.73-.65-1.1a10.74,10.74,0,0,0-3.73,10.08.1.1,0,0,0,.2,0Z" transform="translate(-316.56 -185.81)"/><path class="cls-2" d="M357.1,360.52a20,20,0,0,1,8.55-10.87c1.08-.71,0-2.46-1-1.71a20,20,0,0,0-7.69,12.53.08.08,0,0,0,.16,0Z" transform="translate(-316.56 -185.81)"/></g><g id="Capa_19" data-name="Capa 19"><text class="cls-3" transform="translate(309.99 125.87) rotate(-0.61)">Queso</text></g><g id="Capa_18" data-name="Capa 18"><text class="cls-4" transform="translate(175.43 229.35) rotate(-0.61)">Supremo</text><text class="cls-5" transform="translate(183.02 224.81) rotate(-0.61)">Supremo</text></g></svg>