<svg xmlns="http://www.w3.org/2000/svg" viewBox="0 0 442.59 525.37"><defs><style>.cls-1,.cls-5{fill:#dd3936;}.cls-2,.cls-3,.cls-4{fill:#fac718;}.cls-3{font-size:62.67px;font-family:KrinkesDecorPERSONALUSE, Krinkes Decor PERSONAL USE;}.cls-4,.cls-5{font-size:150.16px;font-family:BillionDreams, Billion Dreams;}</style></defs><g id="Capa_4" data-name="Capa 4"><path class="cls-1" d="M778.34,183.29c-6.92-16.41-21.59-18.13-22.54-18.33-.17,0,2.75,2.53.08,15.49-1.36,6.62-5.79,12.12-11.11,12.43-12.69.73-9.83-16.88-7.29-25.68,4.45-15.4,10.07-29.86,9.33-45.2-.94-19.65-12-37.09-30.42-39.86-2.93-.44-5,3.21-3.07,5.31a14.18,14.18,0,0,1,3.56,6.6,28.7,28.7,0,0,1,.2,9.29c-.73,6.07-3.76,12-7.85,17.13-6.51,8.14-14.62,11.31-23.12,13.39l-.27,0c-3.41.61-6.83,1-10.13,1.42-17.62,2.26-37,8.19-45.1,27.38-3.11,7.41-1.82,15.63-.1,22.53,2.47,9.89,8.73,18.77,7.42,30.15-1.69,14.65-18.51,20.75-28,13.78-6.44-4.72-8.28-12.93-7.34-21.57A46.72,46.72,0,0,1,609,190.46c.68-1.12-5.05,1.4-6.16,2.1-16.07,8.26-31,23.06-35.39,40.45-2.79,11-.69,21.78,0,32.23.39,5.95,2.49,12.78-2.21,18.29-7,8.26-13.59,3.33-15.93-3a2.91,2.91,0,0,0-4.59-1c-19,14.4-9.55,44.61-9.56,44.51-1-7,0-25.09,7.42-35.31a3,3,0,0,1,4.87-.36c3.39,4.59,9,5.66,13.93,4,9-3.09,12.87-11.94,11.85-24.09-.8-9.45-2.84-19.48-1.09-29.08,1.41-7.68,5.18-15.05,11.1-21.9a46.32,46.32,0,0,1,6.12-5.88c2.13-1.7,5-.3,4.76,2.3-1.25,15.19,7.23,21.78,13.08,23.75a28.53,28.53,0,0,0,25.09-3.95,30.54,30.54,0,0,0,8.17-7.94c6.48-10,3.57-20.66.17-29.15-4.22-10.52-7.29-22.91-1.38-34.13,5.47-10.38,19.86-16.11,31.49-17.23,17.34-1.67,31.54-6.35,39.27-13.25,9.2-8.2,12.39-18.12,14.41-29.44.09-.5.17-1,.25-1.54.41-2.74,3.85-4,5.49-2l.42.55a41.79,41.79,0,0,1,8.05,19.29,87.84,87.84,0,0,1-2.51,32.59c-2.38,8.11-4.73,15.7-6.87,23.81-2.39,9.06-3.09,21.57,5.13,25.89,6.91,3.62,16.3.38,21.58-6.78a38.29,38.29,0,0,0,6.33-12.47c.68-2.3,3.41-3.3,5.09-1.87A25.14,25.14,0,0,1,773,186.7c1.75,3.15,6.88.25,5.5-3.11Z" transform="translate(-429.29 -82.1)"/><path class="cls-1" d="M671.1,284.66c-14.7,2.13-26.61,9.12-26.61,15.61s11.91,10,26.61,7.9,26.62-9.12,26.62-15.61S685.8,282.54,671.1,284.66Zm57.55,1.2c-10.71,1.55-19.39,6.64-19.39,11.37s8.68,7.3,19.39,5.75S748,296.34,748,291.61,739.36,284.31,728.65,285.86Zm-85.92,31.06c-6.76,1-12.24,4.19-12.24,7.17s5.48,4.61,12.24,3.63S655,323.53,655,320.55,649.49,315.94,642.73,316.92Zm78.14-44.56c0-2.4-4.4-3.71-9.84-2.92s-9.83,3.37-9.83,5.77,4.4,3.71,9.83,2.92S720.87,274.76,720.87,272.36Zm-101.81,31c-6.76,1-12.24,4.19-12.24,7.17s5.48,4.61,12.24,3.63S631.29,310,631.29,307,625.82,302.38,619.06,303.36Zm56.64-28.24c6.76-1,12.24-4.2,12.24-7.18s-5.48-4.61-12.24-3.63-12.24,4.19-12.24,7.17S668.94,276.09,675.7,275.12Zm-85.42,51.3c-8.83,1.28-16,5.47-16,9.37s7.15,6,16,4.74,16-5.47,16-9.37S599.11,325.14,590.28,326.42Z" transform="translate(-429.29 -82.1)"/><path class="cls-2" d="M813.26,274.1c-.18-.34-.39-.65-.6-1-3.65-11.38-14.21-19.94-23.35-26.19-14.8-10.13-31.62-17.64-49-23.22-15.17-4.86-33-10.4-50.15-4.73a42.86,42.86,0,0,0-23,20.91c-.92,1.94-1.16,4.12-2,6a20.43,20.43,0,0,1-3.94,5.19c-.06.06-.11.13-.17.2-5.28,4.78-8.82,11.27-14.09,16.57-9.2,9.25-21.33,14.51-32.2,21s-17.39,13.83-26,22.87c-3.74,3.94-8.16,6.63-12.69,9.11-8.36,3.29-15.8,7.43-22.57,14.73-3.71,4-7.56,8.64-11.27,12.39-1.55,1.57-7.29,8.48-.84,4.08a77.26,77.26,0,0,0,13.51-11.3,90.09,90.09,0,0,1,19.49-15.63c5-2,9.93-4.11,14.23-7.94s7.47-8.57,11.44-12.64a77.89,77.89,0,0,1,15.62-11.85c9.35-5.66,19.33-10.24,28.08-17a62.08,62.08,0,0,0,9-8.59c4.15-4.48,8.25-9,13.82-11.62,9.19-4.29,19-2,28.06-1.29,3.73.32,7.32.69,10.83,1.23a147.11,147.11,0,0,1,31.88,12.24,91.33,91.33,0,0,1,18.93,12.75,36.09,36.09,0,0,1,7.5,9c.71,1.29,7.17,13.2-3.27,15.13a32.94,32.94,0,0,0-3.53,1.14c-1.7.29-3.35.59-4.89.84-5.37.86-10.81,2.23-16.14,3.64s-10.53,2.95-15.76,4.62c-8.44,1.5-17,1.81-25.52,3.3-9.53,1.65-17,8.09-25.28,12.77q-5.65,1.57-11.32,3.06c-5.39,1.4-10.79,2.5-16.19,3.5-3.32.11-6.63.11-9.72.15-5.86.09-11.32-.33-17.17,1.87a81,81,0,0,0-10.44,5.17c-.67.27-1.34.5-2,.74l-.58.16c-2.54.74-5.07,1.52-7.59,2.31-7.53,1.87-15,2.74-22.89,3.93-6.58,1-12.34,4.61-18.34,7.24h0c-13.65,2.62-31.62,6.42-42.05,12.93-5.6,3.51-13.07,11.06-17.26,16.14-6.5,7.9-10.86,16.54-8.11,25.77a1.54,1.54,0,0,0,2.82,0,62.37,62.37,0,0,1,5.54-10.32c19.5-25.65,55.65-27.11,83.43-32.22a133.81,133.81,0,0,0,21.82-5.7c8.42-3.09,16.52-7,25.3-7.85,3.4-.33,6.7-.41,9.94-.57,8,.38,16-1.69,24.54-4.91,7.25-2.75,14.42-6.06,21.87-7.88,7-1.71,14-1.76,21-2,14.85-.51,28-5,42.64-8.92a69.21,69.21,0,0,1,10.63-1.79l.47,0q3-.26,6.08-.69a64.05,64.05,0,0,0,6.76-1.16c3.35-.67,6.7-1.46,10-2.4,11.52-3.27,23.65-8.47,30.61-19.52C815.27,298.13,818.16,283.2,813.26,274.1ZM807.18,296c-3,11.48-11.47,18.17-22,22.61a103.24,103.24,0,0,1-25.86,6.94c-5.85-.08-10,1.56-16,2.59-13.22,2.26-21,5.29-34.26,7.47-12.17,2-30.93,4.07-42.8,8.64-7.53,2.89-15.18,6.19-22.89,8.37-9.58.88-19.21,1.58-28.73,4.19-8.89,2.44-17.42,4.79-26.38,7.13-9.65,2.53-19.41,3.84-29.11,5.3-22.62,3.42-51.54,9.68-65.59,30.58a51,51,0,0,0-5.49,8.25c-.19-7.85,5.05-15.26,10.91-21.82a87.59,87.59,0,0,1,18.53-13.61c14.77-6.25,34.81-8.55,44-13.67,5.83-3.26,8.63-3.87,22.14-5.08,4.15-.38,8.49-2,12.55-3.44a21.21,21.21,0,0,1,2.85-.87c12-1.85,14.59-6.38,22.2-7.73,5.42-1,11.48.63,16.91-.19,6.65-1,13.3-2,20-3.3,17.42-3.34,21.56-10,32.25-13.77,5.36-1.89,10.69-.38,16.13-1.9,9.78-2.74,22.69-7.5,32.54-9.44,5.37-1.06,7.71.1,13.1-.43,37.79-3.75,16-26.88,9.51-34.06-6.35-7-14.93-12.58-23.32-17a95.12,95.12,0,0,0-21.86-8.15,152.12,152.12,0,0,0-19.33-4.12A79.44,79.44,0,0,0,686,248.16a61.27,61.27,0,0,0-13.72-.18c-1.23-.82-1-2.64.48-3.84a19.08,19.08,0,0,1,4.16-2.09,22.47,22.47,0,0,1,2.41-.87c6.93-1.75,14.91-1.16,20.45-.57.2,0,.27-.27.08-.31-4.67-1.12-15.89-4.4-24.23-3.12-.91-.4-1.33-1.13-.16-2.46.22-.24.46-.46.69-.69a28.39,28.39,0,0,1,17.59-2.19c.14,0,.23-.2.1-.25-4-1.73-7.61-3.92-12.18-3.85l.08-.07c8.14-5.9,18.16-7.13,27-6.28,14.21,1.37,28,6.32,40.83,11.39a207.9,207.9,0,0,1,36.07,18.33A54.34,54.34,0,0,1,801,265.85a15.51,15.51,0,0,0-2.64,0,22,22,0,0,0-3.59.32,15.74,15.74,0,0,0-3.54.68,7.69,7.69,0,0,0-1.66-1.25c-1.82-1.05-3.81-1.8-5.66-2.79-4.79-2.57-9.57-5.16-14.26-7.87-.05,0-.1.05-.06.09,4,3.69,8,7.46,11.82,11.32a5.4,5.4,0,0,1,.68,3.58A3.06,3.06,0,0,1,781,271c-1.53.81-3.29.17-4.58-.38-.32-.13-.64-.28-1-.42-10.64-11.31-24.25-17.77-40.38-20-.08,0-.14.13-.06.16a92.92,92.92,0,0,1,28.51,15c.74.69,1.49,1.34,2.19,2.07,4.29,4.43,6.79,10,11.09,14.47,1.3,1.34,3.52.28,4.5-1.23,5.23-8.05,12.13-9.74,18.71-8.25,3.72,1.55,6.09,4.76,7.42,8.59A33.57,33.57,0,0,1,807.18,296Zm-22.11-26-.12.08a1.1,1.1,0,0,0,0-.16Z" transform="translate(-429.29 -82.1)"/><path class="cls-2" d="M715.18,118.24c6.06-9.53,14.55-31.39-1-36a1,1,0,0,0-.77,1.82c10.27,6.67,6.11,25.48,1.51,34a.13.13,0,0,0,.22.13Z" transform="translate(-429.29 -82.1)"/><path class="cls-2" d="M649.56,146c-16.77,8.41-23.17,24-16.61,41.45a.31.31,0,0,0,.59-.16c-3.14-15,3.39-32.49,16.14-41.07a.13.13,0,0,0-.12-.22Z" transform="translate(-429.29 -82.1)"/><path class="cls-2" d="M750.07,194.46c8.95-5.52,17.55-19.63,8.67-28.82a.59.59,0,0,0-1,.42c0,5.05,1.24,10.36.29,15.33a22.15,22.15,0,0,1-8,13s0,.11.06.08Z" transform="translate(-429.29 -82.1)"/><path class="cls-2" d="M574.15,222.15a113.51,113.51,0,0,1,14.29-14.21c2.86-2.39,6-4.37,8.95-6.59,2.57-1.9,3.89-4.39,6.3-6.45.17-.15,0-.36-.22-.28-3.59,1.55-6.16,1.63-9.28,4.14a95.67,95.67,0,0,0-7.68,7.25A98.09,98.09,0,0,0,574,222c-.06.09.08.21.16.12Z" transform="translate(-429.29 -82.1)"/><path class="cls-2" d="M666.49,303.43c8.24.21,16.31-1.52,23.25-6.11,3.77-2.48,5-8.49-.92-8.8-.8,0-.91,1-.37,1.38,3.5,2.57-7,8-8.63,8.81a46.09,46.09,0,0,1-13.35,4.57.08.08,0,0,0,0,.15Z" transform="translate(-429.29 -82.1)"/><path class="cls-2" d="M723.15,299.44c7.15.78,15.12-1.16,19.73-7,1.27-1.61-.81-3.87-2.31-2.31-4.89,5.06-10.16,8.8-17.42,9.07a.13.13,0,0,0,0,.25Z" transform="translate(-429.29 -82.1)"/><path class="cls-2" d="M586.31,336.26c5.14,1.22,11.33.27,14.91-3.94a1.58,1.58,0,0,0-2.24-2.24c-3.89,3.17-7.49,5.7-12.66,6.13a0,0,0,0,0,0,.05Z" transform="translate(-429.29 -82.1)"/><path class="cls-2" d="M722.76,85.54a13.26,13.26,0,0,0-9.27-3.35c-.82,0-1.58,1-1,1.78,1.1,1.48,2.8,1.86,4.15,3,1.65,1.47,2.12,3.26,2.59,5.32.27,1.17,1.94.83,2-.28a8.54,8.54,0,0,0-1.94-5.43,9.45,9.45,0,0,0-1.92-1.87c-.89-.66-2.21-1-2.85-2l-1,1.77a37.21,37.21,0,0,1,9.09,1.29c.17,0,.32-.18.18-.3Z" transform="translate(-429.29 -82.1)"/><path class="cls-2" d="M705.51,129.79c-3.26,2.76-7.68,4.22-11.64,5.72a.43.43,0,0,0,.11.85c5.07.12,8.57-2.65,11.63-6.46.07-.08,0-.18-.1-.11Z" transform="translate(-429.29 -82.1)"/><path class="cls-2" d="M666.62,141.47A35.09,35.09,0,0,0,633,164.61c-.34.94,1.22,1.62,1.63.69a39.58,39.58,0,0,1,32-23.72.06.06,0,0,0,0-.11Z" transform="translate(-429.29 -82.1)"/><path class="cls-2" d="M682.75,138.45c1.8.35,3.84.49,5.32-.8a.57.57,0,0,0-.4-1c-1.75.06-3.33,1.07-4.92,1.71,0,0,0,0,0,0Z" transform="translate(-429.29 -82.1)"/><path class="cls-2" d="M598.72,206.69a17.92,17.92,0,0,1,5.63-11.22c.55-.55,0-1.65-.79-1.37-4.86,1.75-9.13,3.91-12.06,8.35-.61.91.73,1.88,1.48,1.15,3.18-3.09,6.76-6.4,11-7.92l-.79-1.37a13.24,13.24,0,0,0-4.73,12.38.13.13,0,0,0,.25,0Z" transform="translate(-429.29 -82.1)"/><path class="cls-2" d="M536.07,295.66a24.74,24.74,0,0,1,10.69-13.3c1.34-.85,0-3-1.24-2.11a24.67,24.67,0,0,0-9.65,15.35.1.1,0,0,0,.2.06Z" transform="translate(-429.29 -82.1)"/></g><g id="Capa_19" data-name="Capa 19"><text class="cls-3" transform="translate(190.23 336.84) rotate(-12.39)">Queso</text></g><g id="Capa_18" data-name="Capa 18"><text class="cls-4" transform="translate(23.6 467.97) rotate(-9.88)">Supremo</text><text class="cls-5" transform="translate(30.36 462.27) rotate(-9.88)">Supremo</text></g></svg>