<svg xmlns="http://www.w3.org/2000/svg" viewBox="0 0 653.54 332.58"><defs><style>.cls-1,.cls-5{fill:#dd3936;}.cls-2,.cls-3,.cls-4{fill:#fac718;}.cls-3{font-size:62.67px;font-family:KrinkesDecorPERSONALUSE, Krinkes Decor PERSONAL USE;}.cls-4,.cls-5{font-size:150.16px;font-family:BillionDreams, Billion Dreams;}</style></defs><g id="Capa_4" data-name="Capa 4"><path class="cls-1" d="M523,275.8c-6.93-16.41-21.6-18.13-22.55-18.33-.16,0,2.75,2.53.08,15.5-1.36,6.61-5.78,12.11-11.1,12.42-12.69.74-9.84-16.88-7.3-25.68,4.45-15.4,10.07-29.86,9.34-45.2-.94-19.65-12-37.08-30.42-39.86-2.93-.44-5,3.21-3.08,5.31a14.19,14.19,0,0,1,3.56,6.6,28.7,28.7,0,0,1,.2,9.29c-.72,6.07-3.75,12-7.85,17.13-6.51,8.14-14.62,11.31-23.12,13.39l-.27,0c-3.41.61-6.83,1-10.13,1.42-17.62,2.26-37,8.19-45.09,27.38-3.12,7.41-1.83,15.64-.11,22.53,2.48,9.89,8.73,18.77,7.42,30.15-1.69,14.65-18.51,20.75-28,13.78-6.44-4.72-8.27-12.93-7.34-21.57A46.74,46.74,0,0,1,353.65,283c.67-1.12-5.06,1.4-6.17,2.1-16.07,8.26-31,23.07-35.39,40.45-2.79,11-.69,21.78,0,32.23.39,6,2.49,12.78-2.2,18.3-7,8.25-13.59,3.33-15.93-3a2.92,2.92,0,0,0-4.59-1c-19,14.4-9.56,44.61-9.57,44.51-1-7,0-25.09,7.43-35.31a3,3,0,0,1,4.86-.36c3.4,4.59,9,5.66,13.93,4,9-3.09,12.87-11.94,11.85-24.09-.8-9.45-2.84-19.48-1.08-29.08,1.4-7.68,5.17-15.05,11.09-21.9a45.78,45.78,0,0,1,6.13-5.88,2.82,2.82,0,0,1,4.76,2.3c-1.25,15.2,7.23,21.78,13.07,23.75A28.53,28.53,0,0,0,376.93,326,30.25,30.25,0,0,0,385.1,318c6.48-10,3.57-20.66.17-29.15-4.22-10.52-7.29-22.91-1.38-34.12,5.48-10.39,19.86-16.12,31.49-17.24,17.34-1.67,31.55-6.35,39.27-13.24,9.2-8.21,12.39-18.13,14.41-29.45.09-.5.18-1,.25-1.54.41-2.74,3.86-4,5.49-2,.15.18.29.36.42.55a41.73,41.73,0,0,1,8,19.29,87.82,87.82,0,0,1-2.5,32.59c-2.39,8.11-4.73,15.7-6.87,23.81-2.39,9.06-3.1,21.57,5.13,25.89,6.9,3.62,16.29.38,21.58-6.78a38.68,38.68,0,0,0,6.33-12.47c.67-2.3,3.41-3.3,5.08-1.87a25,25,0,0,1,5.61,6.92c1.76,3.15,6.88.26,5.5-3.11Z" transform="translate(-229.54 -174.61)"/><path class="cls-1" d="M415.77,377.18c-14.7,2.12-26.62,9.11-26.62,15.6s11.92,10,26.62,7.9,26.61-9.12,26.61-15.61S430.47,375.05,415.77,377.18Zm57.54,1.19c-10.71,1.55-19.39,6.64-19.39,11.37s8.68,7.3,19.39,5.75,19.39-6.64,19.39-11.37S484,376.82,473.31,378.37Zm-85.92,31.06c-6.76,1-12.24,4.19-12.24,7.17s5.48,4.61,12.24,3.64,12.24-4.2,12.24-7.18S394.15,408.45,387.39,409.43Zm78.15-44.56c0-2.4-4.41-3.71-9.84-2.92s-9.84,3.37-9.84,5.77,4.4,3.71,9.84,2.92S465.54,367.27,465.54,364.87Zm-101.82,31c-6.76,1-12.24,4.19-12.24,7.17s5.48,4.61,12.24,3.63S376,402.48,376,399.5,370.48,394.89,363.72,395.87Zm56.64-28.24c6.76-1,12.24-4.2,12.24-7.18s-5.48-4.61-12.24-3.63S408.12,361,408.12,364,413.6,368.61,420.36,367.63Zm-85.42,51.3c-8.82,1.28-16,5.47-16,9.37s7.16,6,16,4.74,16-5.47,16-9.37S343.77,417.65,334.94,418.93Z" transform="translate(-229.54 -174.61)"/><path class="cls-2" d="M557.93,366.61c-.19-.34-.4-.65-.6-1-3.66-11.39-14.21-19.94-23.36-26.2-14.8-10.13-31.61-17.64-49-23.22-15.17-4.86-33-10.4-50.14-4.73a37.46,37.46,0,0,0-18.73,14.09,36.82,36.82,0,0,0-4.23,6.82c-.93,1.94-1.17,4.12-2.06,6a20.2,20.2,0,0,1-3.94,5.19c-.06.06-.11.14-.17.2-5.28,4.79-8.81,11.27-14.08,16.57-9.2,9.25-21.33,14.51-32.21,21s-17.39,13.83-26,22.87c-3.74,3.94-8.16,6.63-12.69,9.12-8.36,3.28-15.8,7.42-22.57,14.72-3.71,4-7.55,8.64-11.27,12.39-1.55,1.57-7.28,8.48-.83,4.08a76.84,76.84,0,0,0,13.5-11.3A90.09,90.09,0,0,1,319,417.59c5-2,9.94-4.11,14.23-7.94s7.48-8.57,11.45-12.64a78.2,78.2,0,0,1,15.61-11.85c9.36-5.66,19.33-10.24,28.09-17.05a62.6,62.6,0,0,0,9-8.59c4.14-4.48,8.25-9,13.82-11.62,9.18-4.29,18.95-2,28.05-1.28,3.74.31,7.32.68,10.83,1.22A147.11,147.11,0,0,1,482,360.08a91.07,91.07,0,0,1,18.93,12.75,36.34,36.34,0,0,1,7.51,9c.71,1.29,7.16,13.2-3.28,15.13a32.94,32.94,0,0,0-3.53,1.14c-1.7.29-3.35.59-4.89.84-5.37.86-10.81,2.23-16.14,3.64s-10.53,3-15.76,4.62c-8.44,1.5-17,1.81-25.52,3.3-9.53,1.65-17,8.09-25.27,12.77q-5.67,1.57-11.33,3.06c-5.39,1.4-10.79,2.51-16.19,3.5-3.32.11-6.63.11-9.72.15-5.86.09-11.32-.33-17.17,1.87a81.64,81.64,0,0,0-10.44,5.17c-.67.27-1.34.5-2,.74l-.59.16c-2.53.74-5.06,1.52-7.58,2.31-7.54,1.87-15,2.74-22.9,3.93-6.57,1-12.34,4.61-18.33,7.24h0c-13.65,2.63-31.62,6.42-42,12.94-5.6,3.5-13.07,11.05-17.26,16.13-6.51,7.9-10.87,16.54-8.12,25.77a1.54,1.54,0,0,0,2.82,0,63.13,63.13,0,0,1,5.54-10.32c19.5-25.65,55.65-27.11,83.43-32.22A134.19,134.19,0,0,0,344,458c8.42-3.09,16.52-7,25.29-7.85,3.41-.33,6.71-.41,9.94-.57,8,.38,16.06-1.69,24.54-4.91,7.25-2.74,14.42-6.06,21.87-7.88,7-1.71,14-1.76,21-2,14.84-.51,28-5,42.64-8.92a70,70,0,0,1,10.63-1.79l.46,0q3-.26,6.09-.69a63.87,63.87,0,0,0,6.75-1.16c3.36-.67,6.71-1.46,10-2.4,11.52-3.27,23.65-8.47,30.62-19.52C559.93,390.64,562.83,375.71,557.93,366.61Zm-6.09,21.93c-3,11.47-11.47,18.16-22,22.6a103.81,103.81,0,0,1-25.86,6.95c-5.86-.09-10,1.55-16,2.59-13.21,2.25-20.95,5.28-34.26,7.46-12.17,2-30.93,4.07-42.8,8.64-7.53,2.89-15.18,6.19-22.89,8.37-9.57.88-19.21,1.58-28.72,4.19-8.9,2.44-17.43,4.79-26.38,7.13-9.66,2.53-19.41,3.84-29.12,5.31-22.62,3.41-51.54,9.67-65.59,30.57a51,51,0,0,0-5.48,8.25c-.19-7.85,5-15.26,10.9-21.81a87.55,87.55,0,0,1,18.53-13.62c14.77-6.25,34.82-8.55,44-13.67,5.84-3.26,8.63-3.87,22.14-5.08,4.15-.38,8.49-2,12.55-3.44a21.21,21.21,0,0,1,2.85-.87c12-1.85,14.59-6.38,22.2-7.73,5.43-1,11.48.63,16.92-.19,6.64-1,13.3-2,20-3.3,17.42-3.34,21.56-10,32.25-13.77,5.37-1.89,10.7-.38,16.13-1.9,9.78-2.74,22.69-7.5,32.54-9.44,5.37-1.06,7.71.1,13.1-.43,37.8-3.75,16-26.88,9.51-34.06-6.34-7-14.93-12.57-23.32-17a95.12,95.12,0,0,0-21.86-8.15,152.12,152.12,0,0,0-19.33-4.12,79.3,79.3,0,0,0-11.12-1.38,61.36,61.36,0,0,0-13.73-.18c-1.23-.82-1-2.64.49-3.84a19.69,19.69,0,0,1,4.15-2.09,24.87,24.87,0,0,1,2.41-.87c6.93-1.75,14.92-1.16,20.45-.57.2,0,.27-.27.09-.31-4.67-1.12-15.89-4.4-24.24-3.12-.9-.4-1.33-1.13-.16-2.46.22-.24.46-.46.69-.69a28.4,28.4,0,0,1,17.59-2.19c.14,0,.23-.2.1-.25-4-1.72-7.61-3.92-12.18-3.85l.09-.07c8.14-5.9,18.15-7.13,27-6.28,14.2,1.37,28,6.32,40.82,11.39a207.9,207.9,0,0,1,36.07,18.33,54.34,54.34,0,0,1,15.39,14.74,15.5,15.5,0,0,0-2.64,0,22.07,22.07,0,0,0-3.59.32,15.65,15.65,0,0,0-3.53.68,8,8,0,0,0-1.67-1.25c-1.81-1.05-3.81-1.8-5.66-2.79-4.78-2.57-9.56-5.16-14.26-7.87-.05,0-.1.05-.06.09,4,3.69,8,7.46,11.82,11.32a5.4,5.4,0,0,1,.68,3.58,3,3,0,0,1-1.17,1c-1.54.81-3.3.18-4.59-.37l-.95-.43c-10.64-11.31-24.25-17.77-40.37-20-.09,0-.15.12-.07.15a93,93,0,0,1,28.52,15c.73.69,1.49,1.35,2.19,2.07,4.28,4.43,6.78,10,11.08,14.47,1.3,1.34,3.52.28,4.51-1.23,5.22-8,12.12-9.74,18.71-8.25,3.71,1.55,6.08,4.76,7.41,8.59A33.62,33.62,0,0,1,551.84,388.54Zm-22.1-26-.13.08c0-.06,0-.11,0-.16Z" transform="translate(-229.54 -174.61)"/><path class="cls-2" d="M459.84,210.75c6.07-9.53,14.56-31.39-1-36a1,1,0,0,0-.76,1.82c10.26,6.67,6.1,25.48,1.5,34a.13.13,0,0,0,.22.12Z" transform="translate(-229.54 -174.61)"/><path class="cls-2" d="M394.22,238.53c-16.76,8.41-23.17,24-16.61,41.45a.31.31,0,0,0,.59-.16c-3.14-15,3.39-32.49,16.15-41.07a.13.13,0,0,0-.13-.22Z" transform="translate(-229.54 -174.61)"/><path class="cls-2" d="M494.73,287c9-5.53,17.55-19.64,8.68-28.82a.6.6,0,0,0-1,.41c0,5.05,1.25,10.36.29,15.33a22.15,22.15,0,0,1-8,13s0,.11.06.08Z" transform="translate(-229.54 -174.61)"/><path class="cls-2" d="M318.81,314.66a114.86,114.86,0,0,1,14.29-14.21c2.87-2.39,6-4.37,9-6.59,2.56-1.9,3.88-4.38,6.3-6.45.16-.15-.05-.36-.22-.28-3.59,1.56-6.17,1.63-9.29,4.15a93.79,93.79,0,0,0-7.68,7.24,98.09,98.09,0,0,0-12.52,16c-.06.09.09.21.16.12Z" transform="translate(-229.54 -174.61)"/><path class="cls-2" d="M411.16,395.94c8.24.21,16.3-1.52,23.25-6.11,3.76-2.48,4.94-8.49-.92-8.8-.81,0-.92,1-.38,1.38,3.5,2.58-7,8-8.63,8.81a46.14,46.14,0,0,1-13.34,4.57.08.08,0,0,0,0,.15Z" transform="translate(-229.54 -174.61)"/><path class="cls-2" d="M467.81,392c7.15.77,15.12-1.17,19.73-7,1.27-1.61-.81-3.87-2.31-2.31-4.88,5.06-10.16,8.8-17.42,9.07a.13.13,0,0,0,0,.26Z" transform="translate(-229.54 -174.61)"/><path class="cls-2" d="M331,428.77c5.14,1.22,11.33.27,14.91-3.94a1.58,1.58,0,0,0-2.24-2.24c-3.88,3.17-7.48,5.7-12.66,6.13a0,0,0,0,0,0,0Z" transform="translate(-229.54 -174.61)"/><path class="cls-2" d="M467.42,178.05a13.26,13.26,0,0,0-9.27-3.35c-.81,0-1.58,1-1,1.78,1.1,1.48,2.81,1.86,4.15,3.06,1.65,1.46,2.12,3.25,2.6,5.31.27,1.17,1.93.83,2-.27a8.41,8.41,0,0,0-1.94-5.43,9.2,9.2,0,0,0-1.91-1.88c-.9-.66-2.22-1-2.86-2l-1,1.78a36.8,36.8,0,0,1,9.1,1.28.18.18,0,0,0,.17-.3Z" transform="translate(-229.54 -174.61)"/><path class="cls-2" d="M450.17,222.3c-3.26,2.76-7.68,4.22-11.64,5.72a.43.43,0,0,0,.12.85c5.07.12,8.56-2.65,11.63-6.46.06-.08,0-.18-.11-.11Z" transform="translate(-229.54 -174.61)"/><path class="cls-2" d="M411.29,234a35.1,35.1,0,0,0-33.59,23.14c-.34.94,1.23,1.62,1.64.69a39.56,39.56,0,0,1,32-23.72.06.06,0,0,0,0-.11Z" transform="translate(-229.54 -174.61)"/><path class="cls-2" d="M427.41,231c1.8.35,3.84.49,5.33-.8a.57.57,0,0,0-.4-1c-1.76.06-3.34,1.08-4.93,1.71,0,0,0,0,0,.05Z" transform="translate(-229.54 -174.61)"/><path class="cls-2" d="M343.39,299.2A17.91,17.91,0,0,1,349,288c.56-.55,0-1.65-.79-1.37-4.85,1.75-9.12,3.91-12.06,8.35-.6.91.73,1.88,1.48,1.15,3.18-3.08,6.76-6.4,11-7.92l-.79-1.37c-3.83,3-5.3,7.61-4.73,12.38a.13.13,0,0,0,.26,0Z" transform="translate(-229.54 -174.61)"/><path class="cls-2" d="M280.73,388.17a24.74,24.74,0,0,1,10.69-13.3c1.34-.85,0-3-1.24-2.11a24.71,24.71,0,0,0-9.65,15.35.1.1,0,0,0,.2.06Z" transform="translate(-229.54 -174.61)"/></g><g id="Capa_19" data-name="Capa 19"><text class="cls-3" transform="translate(360.91 150.33) rotate(-12.39)">Queso</text></g><g id="Capa_18" data-name="Capa 18"><text class="cls-4" transform="translate(234.55 271.46) rotate(-9.88)">Supremo</text><text class="cls-5" transform="translate(241.32 265.76) rotate(-9.88)">Supremo</text></g></svg>